<?xml version="1.0" encoding="UTF-8"?><svg id="Camada_2" xmlns="http://www.w3.org/2000/svg" viewBox="0 0 18.86 18.86"><defs><style>.cls-1{fill:#fcfcfc;fill-rule:evenodd;}</style></defs><g id="Layer_1"><path class="cls-1" d="M9.43,0C4.22,0,0,4.33,0,9.67c0,4.27,2.7,7.89,6.45,9.17,.47,.09,.64-.21,.64-.47,0-.23,0-.84-.01-1.65-2.62,.59-3.18-1.3-3.18-1.3-.43-1.12-1.05-1.41-1.05-1.41-.85-.6,.06-.59,.06-.59,.95,.07,1.44,1,1.44,1,.84,1.48,2.21,1.05,2.74,.8,.08-.62,.33-1.05,.6-1.29-2.09-.24-4.29-1.07-4.29-4.78,0-1.06,.37-1.92,.97-2.59-.1-.24-.42-1.23,.09-2.56,0,0,.79-.26,2.59,.99,.75-.21,1.56-.32,2.36-.32,.8,0,1.61,.11,2.36,.32,1.8-1.25,2.59-.99,2.59-.99,.51,1.33,.19,2.32,.09,2.56,.6,.68,.97,1.54,.97,2.59,0,3.71-2.21,4.53-4.31,4.77,.34,.3,.64,.89,.64,1.79,0,1.29-.01,2.34-.01,2.65,0,.26,.17,.56,.65,.46,3.76-1.28,6.45-4.9,6.45-9.16C18.86,4.33,14.64,0,9.43,0Z"/></g></svg>