<?xml version="1.0" encoding="UTF-8"?><svg id="Camada_2" xmlns="http://www.w3.org/2000/svg" viewBox="0 0 18.86 18.86"><defs><style>.cls-1{fill:#fcfcfc;fill-rule:evenodd;}</style></defs><g id="Layer_1"><g id="linkdin___social__media__logo"><path class="cls-1" d="M16.44,0H2.42C1.09,0,0,1.09,0,2.42v14.03c0,1.33,1.09,2.42,2.42,2.42h14.02c1.33,0,2.42-1.09,2.42-2.42V2.42c0-1.33-1.09-2.42-2.42-2.42ZM6.48,9.11v5.82H3.93V7.58h2.55v1.52Zm-1.28-2.62c-.71,0-1.29-.58-1.29-1.29s.58-1.29,1.29-1.29,1.29,.58,1.29,1.29-.58,1.29-1.29,1.29Zm9.73,4.43v4.01h-2.2v-3.57c0-.85-.09-1.95-1.26-1.95s-1.37,.93-1.37,1.89v3.63h-2.12V7.58h2.04v.98h.02c.3-.55,1.05-.98,2.16-.98,1.87,0,2.51,.89,2.68,2.27,.04,.33,.06,.68,.06,1.07h-.01Z"/></g></g></svg>